<svg width="63" height="80" viewBox="0 0 63 80" fill="none" xmlns="http://www.w3.org/2000/svg">
<path d="M28.1718 0H41.2462V59.9242C34.5492 61.1909 29.6192 61.6893 24.2849 61.6893C8.31636 61.6726 0.00396729 54.5387 0.00396729 40.8373C0.00396729 27.6361 8.82114 19.0685 22.4845 19.0685C24.6047 19.0685 26.2199 19.2353 28.1718 19.7352V0ZM28.63 30.5342C27.0987 30.0341 25.8368 29.8675 24.2214 29.8675C17.6086 29.8675 13.789 33.9011 13.789 40.9701C13.789 47.8525 17.4405 51.6528 24.1375 51.6528C25.5843 51.6528 26.7622 51.5713 28.63 51.3212V30.5342V30.5342Z" fill="#2BA977"/>
<path d="M62.6266 20.6772V50.6804C62.6266 61.013 61.8526 65.9818 59.5809 70.2657C57.4607 74.3842 54.6675 76.9813 48.896 79.8498L36.764 74.1327C42.5355 71.4505 45.3286 69.0804 47.1124 65.4635C48.9799 61.7649 49.5689 57.4809 49.5689 46.2132V20.6775H62.6266V20.6772Z" fill="#2BA977"/>
<path d="M48.2513 0H61.3257V13.2847H48.2513V0Z" fill="#2BA977"/>
</svg>
