<svg width="90" height="80" viewBox="0 0 90 80" fill="none" xmlns="http://www.w3.org/2000/svg">
<g clip-path="url(#clip0)">
<path d="M73.8537 25.9033C72.8978 25.5753 71.9337 25.2715 70.9625 24.992C71.1256 24.3254 71.2758 23.6668 71.4091 23.0198C73.5979 12.3949 72.167 3.83521 67.2796 1.01696C62.5937 -1.68479 54.9302 1.1324 47.1905 7.86819C46.4277 8.53322 45.6819 9.21742 44.9537 9.92012C44.4662 9.45284 43.9701 8.99464 43.4656 8.54574C35.354 1.34363 27.2235 -1.69181 22.3414 1.13451C17.6596 3.84468 16.2733 11.8913 18.2439 21.9608C18.4399 22.9581 18.6613 23.9502 18.9077 24.9363C17.7568 25.2633 16.6463 25.6113 15.5835 25.9819C6.07333 29.2977 0 34.4938 0 39.8836C0 45.4503 6.52 51.0338 16.4253 54.4194C17.2283 54.6928 18.038 54.9461 18.8537 55.1791C18.5888 56.2411 18.3536 57.3102 18.1484 58.3854C16.2698 68.2801 17.7368 76.1366 22.406 78.8296C27.2284 81.6106 35.3225 78.7524 43.2035 71.8629C43.8426 71.3028 44.4676 70.7269 45.0779 70.1356C45.8665 70.8965 46.6762 71.6352 47.506 72.351C55.1404 78.9201 62.68 81.5727 67.3446 78.8724C72.1625 76.0833 73.7284 67.6433 71.6954 57.3749C71.5353 56.5704 71.3557 55.7699 71.1568 54.9742C71.7253 54.8057 72.2832 54.6324 72.827 54.452C83.1246 51.0405 89.8246 45.5247 89.8246 39.8836C89.8246 34.4742 83.5551 29.2429 73.8537 25.9033ZM71.6204 50.8099C71.1291 50.9724 70.6253 51.1292 70.1116 51.2819C68.9747 47.6829 67.4407 43.8563 65.5632 39.9022C67.3547 36.0426 68.8298 32.2647 69.9347 28.6892C70.8537 28.9552 71.7453 29.2356 72.6049 29.5313C80.9172 32.3931 85.9874 36.6236 85.9874 39.8836C85.9874 43.3559 80.5116 47.8636 71.6204 50.8099ZM67.9312 58.1201C68.8302 62.6605 68.9582 66.7657 68.3628 69.9752C67.8281 72.8591 66.7523 74.7815 65.4218 75.5517C62.5912 77.1903 56.5375 75.0605 50.0088 69.4422C49.237 68.7767 48.4838 68.0899 47.7502 67.3826C50.2814 64.6145 52.8109 61.3966 55.2796 57.8226C59.6221 57.4373 63.7246 56.8071 67.4449 55.9471C67.6281 56.6864 67.7909 57.4113 67.9312 58.1201ZM30.6232 75.2685C27.8575 76.245 25.6547 76.2731 24.3232 75.5054C21.4898 73.8713 20.3119 67.5629 21.9186 59.1012C22.1096 58.1013 22.3283 57.1068 22.5744 56.1191C26.2537 56.9331 30.3263 57.5184 34.6789 57.8713C37.1646 61.3685 39.767 64.5829 42.3898 67.3977C41.8324 67.937 41.2619 68.4625 40.6786 68.9738C37.1933 72.0201 33.7011 74.1815 30.6232 75.2685ZM17.6667 50.7885C13.2867 49.2913 9.66947 47.3457 7.19018 45.2226C4.96211 43.3149 3.83754 41.4205 3.83754 39.8836C3.83754 36.6128 8.71368 32.4408 16.8467 29.6054C17.8337 29.2615 18.8667 28.937 19.9386 28.6324C21.0628 32.2885 22.5372 36.1113 24.3165 39.977C22.514 43.8998 21.0186 47.7836 19.8835 51.4829C19.139 51.2697 18.3998 51.0381 17.6667 50.7885ZM22.0098 21.2236C20.3218 12.5966 21.4428 6.08889 24.2642 4.45556C27.2691 2.71591 33.914 5.19626 40.9179 11.4152C41.3746 11.8217 41.8239 12.2363 42.2656 12.6591C39.6558 15.4615 37.0772 18.6521 34.6137 22.1285C30.3891 22.5201 26.3453 23.1489 22.6274 23.9913C22.3983 23.0742 22.1924 22.1515 22.0098 21.224V21.2236ZM60.7561 30.7913C59.878 29.2745 58.9672 27.7767 58.0246 26.2991C60.8905 26.6615 63.6365 27.1426 66.2151 27.7306C65.4411 30.212 64.4761 32.8061 63.3404 35.4657C62.5102 33.8906 61.6486 32.3321 60.7561 30.7913ZM44.9554 15.4015C46.7253 17.3191 48.4979 19.4598 50.2414 21.7826C46.7046 21.6155 43.1618 21.6148 39.6249 21.7805C41.3702 19.4791 43.1579 17.3412 44.9554 15.4015ZM29.0533 30.8177C28.1721 32.346 27.3266 33.8948 26.5175 35.4626C25.4004 32.8124 24.4442 30.2064 23.6635 27.6899C26.2263 27.1166 28.9593 26.6478 31.807 26.292C30.8538 27.7787 29.9357 29.2875 29.0533 30.8173V30.8177ZM31.8888 53.7482C28.9467 53.4198 26.1726 52.9752 23.6105 52.4173C24.4035 49.8559 25.3807 47.1945 26.5221 44.4875C27.3343 46.0565 28.1833 47.6061 29.0684 49.1352C29.9786 50.7071 30.9211 52.2468 31.8888 53.7482ZM45.0614 64.6359C43.2425 62.6738 41.4284 60.5029 39.6568 58.1682C41.3768 58.2356 43.1302 58.2699 44.9123 58.2699C46.7432 58.2699 48.553 58.2289 50.3344 58.1496C48.5853 60.5264 46.8193 62.7005 45.0614 64.6359ZM63.3765 44.3492C64.5772 47.0861 65.5891 49.7335 66.3926 52.251C63.7884 52.8454 60.9765 53.324 58.0137 53.6794C58.9631 52.1743 59.8824 50.6505 60.7712 49.1089C61.6749 47.5419 62.5435 45.9549 63.3765 44.3492ZM57.4474 47.1917C56.0867 49.5553 54.6496 51.8741 53.1382 54.1443C50.4006 54.3382 47.6568 54.4345 44.9123 54.4331C42.1168 54.4331 39.3979 54.3461 36.7796 54.1763C35.2289 51.9113 33.7643 49.5885 32.3891 47.2128H32.3895C31.0208 44.8496 29.7423 42.4354 28.5568 39.9752C29.7393 37.5145 31.0139 35.0991 32.3779 32.7342L32.3775 32.7345C33.7411 30.369 35.1939 28.0561 36.733 25.8008C39.4042 25.5987 42.1435 25.4935 44.9119 25.4935H44.9123C47.6933 25.4935 50.4361 25.5998 53.1067 25.8033C54.6302 28.0552 56.0738 30.3601 57.4347 32.7138C58.8033 35.0735 60.0947 37.4771 61.307 39.9208C60.1072 42.3895 58.8198 44.8147 57.4474 47.1917ZM65.3632 4.34117C68.3709 6.07591 69.5407 13.0713 67.6509 22.245C67.5302 22.8303 67.3947 23.4264 67.2474 24.031C63.5204 23.1706 59.4737 22.531 55.2368 22.1335C52.7688 18.6187 50.2112 15.4233 47.6439 12.657C48.3167 12.0084 49.0056 11.3766 49.7098 10.7622C56.3414 4.99135 62.5393 2.71275 65.3632 4.34117ZM44.9123 31.8626C49.3421 31.8626 52.9333 35.4538 52.9333 39.8836C52.9333 44.3134 49.3421 47.9047 44.9123 47.9047C40.4825 47.9047 36.8912 44.3134 36.8912 39.8836C36.8912 35.4538 40.4825 31.8626 44.9123 31.8626Z" fill="#00D8FF"/>
</g>
<defs>
<clipPath id="clip0">
<rect width="89.8246" height="80" fill="white"/>
</clipPath>
</defs>
</svg>
